<?xml version="1.0" encoding="utf-8"?>
<!-- Generator: Adobe Illustrator 15.0.2, SVG Export Plug-In . SVG Version: 6.00 Build 0)  -->
<!DOCTYPE svg PUBLIC "-//W3C//DTD SVG 1.1//EN" "http://www.w3.org/Graphics/SVG/1.1/DTD/svg11.dtd">
<svg version="1.1" id="Layer_1" xmlns="http://www.w3.org/2000/svg" xmlns:xlink="http://www.w3.org/1999/xlink" x="0px" y="0px"
	 width="71.848px" height="97.686px" viewBox="0 0 71.848 97.686" enable-background="new 0 0 71.848 97.686" xml:space="preserve">
<path fill="#9A6733" d="M71.848,63.328c0-14.894-11.395-27.339-26.626-30.433l-0.047-0.181c-0.002-0.73-0.131-1.198-0.131-1.198
	c-0.021,0.118-0.053,0.232-0.088,0.344l-1.117-4.34c0.904-0.568,1.381-1.125,1.301-1.623c-0.261-1.61-6.241-1.984-13.42-0.858
	c-0.636-4.915-4.921-9.708-4.921-9.708l-2.06,2.06c2.694,0.622,4.073,5.328,4.654,8.058c-6.303,1.246-10.958,3.254-10.719,4.731
	c0.072,0.447,0.586,0.797,1.441,1.047c0.176,1.309,0.369,3.005,0.521,4.41c-0.011-0.001-0.017-0.001-0.017-0.001
	c-0.283,0.282-0.53,0.549-0.752,0.805C8.394,41.787,0.534,52.709,0.534,65.314c0,17.878,15.81,32.371,35.313,32.371
	c16.563,0,30.46-10.453,34.275-24.555C71.235,70.047,71.848,66.754,71.848,63.328z"/>
<polygon fill="#9A6733" points="25.783,13.389 23.035,13.413 23.735,16.07 21.614,14.323 20.443,16.809 19.941,14.108 
	17.446,15.259 18.798,12.867 16.146,12.145 18.72,11.181 17.153,8.924 19.744,9.84 19.994,7.104 21.39,9.471 23.341,7.536 
	22.889,10.246 25.627,10.018 23.539,11.803 "/>
<polygon fill="#9A6733" points="20.091,22.409 15.677,22.449 16.802,26.718 13.395,23.912 11.513,27.904 10.707,23.565 
	6.699,25.414 8.871,21.571 4.612,20.412 8.746,18.864 6.229,15.238 10.391,16.71 10.792,12.314 13.035,16.117 16.168,13.008 
	15.441,17.361 19.84,16.995 16.485,19.863 "/>
<polygon fill="#9A6733" points="16.723,12.15 15.31,12.397 14.711,13.7 14.04,12.432 12.615,12.266 13.614,11.236 13.332,9.83 
	14.62,10.461 15.871,9.758 15.668,11.179 "/>
<path fill="#9A6733" d="M20.536,19.017c0,0-1.489-0.834-1.191,0.298c0,0,0.298,1.131,1.667,1.548c0,0,1.43-1.37,0.656-2.382
	C21.668,18.48,21.43,17.884,20.536,19.017z"/>
<path fill="#9A6733" d="M20.44,1.385c0,0-2.978-1.668-2.382,0.596c0,0,0.595,2.264,3.335,3.098c0,0,2.86-2.74,1.311-4.766
	C22.705,0.313,22.228-0.878,20.44,1.385z"/>
<path fill="#9A6733" d="M3.778,7.747c0,0-5.998,0.532-2.878,3.237c0,0,3.12,2.707,7.94,1.196c0,0,1.442-6.837-2.829-8.248
	C6.011,3.932,4.131,2.67,3.778,7.747z"/>
</svg>
