<?xml version="1.0" encoding="utf-8"?>
<!-- Generator: Adobe Illustrator 15.0.2, SVG Export Plug-In . SVG Version: 6.00 Build 0)  -->
<!DOCTYPE svg PUBLIC "-//W3C//DTD SVG 1.1//EN" "http://www.w3.org/Graphics/SVG/1.1/DTD/svg11.dtd">
<svg version="1.1" id="Layer_1" xmlns="http://www.w3.org/2000/svg" xmlns:xlink="http://www.w3.org/1999/xlink" x="0px" y="0px"
	 width="91px" height="86.211px" viewBox="0 0 91 86.211" enable-background="new 0 0 91 86.211" xml:space="preserve">
<path fill="#9A6733" d="M83.885,41.392c3.451-4.354,5.519-9.858,5.519-15.848C89.403,11.436,77.968,0,63.859,0
	c-7.631,0-14.478,3.351-19.158,8.657C40.021,3.352,33.175,0,25.544,0C11.436,0,0,11.436,0,25.544c0,7.673,3.388,14.551,8.744,19.232
	c-3.472,4.362-5.551,9.882-5.551,15.891c0,14.107,11.437,25.544,25.544,25.544c7.617,0,14.451-3.338,19.131-8.627
	c4.581,4.354,10.771,7.03,17.588,7.03C79.564,84.614,91,73.178,91,59.07C91,52.207,88.289,45.982,83.885,41.392z"/>
</svg>
