<?xml version="1.0" encoding="utf-8"?>
<!-- Generator: Adobe Illustrator 15.0.2, SVG Export Plug-In . SVG Version: 6.00 Build 0)  -->
<!DOCTYPE svg PUBLIC "-//W3C//DTD SVG 1.1//EN" "http://www.w3.org/Graphics/SVG/1.1/DTD/svg11.dtd">
<svg version="1.1" id="Layer_1" xmlns="http://www.w3.org/2000/svg" xmlns:xlink="http://www.w3.org/1999/xlink" x="0px" y="0px"
	 width="80.568px" height="86.876px" viewBox="0 0 80.568 86.876" enable-background="new 0 0 80.568 86.876" xml:space="preserve">
<g>
	<g>
		<path fill="#9A6733" d="M80.568,59.912"/>
	</g>
	<g>
		<path fill="#9A6733" d="M67.885,66.475"/>
	</g>
	<g>
		<path fill="#9A6733" d="M67.367,15.671c0-5.01-4.061-9.071-9.068-9.071H16.436c-5.008,0-9.068,4.062-9.068,9.071v55.857
			c0,5.01,4.06,9.071,9.068,9.071h41.863c5.008,0,9.068-4.062,9.068-9.071V15.671z M57.367,63.37c0,3.44-2.789,6.229-6.229,6.229
			H20.597c-3.44,0-6.229-2.789-6.229-6.229V25.829c0-3.44,2.789-6.229,6.229-6.229h30.541c3.44,0,6.229,2.789,6.229,6.229V63.37z"/>
		<ellipse fill="#9A6733" cx="10.484" cy="9.734" rx="8.238" ry="7.488"/>
		<ellipse fill="#9A6733" cx="66.655" cy="9.734" rx="8.238" ry="7.488"/>
		<ellipse fill="#9A6733" cx="11.234" cy="77.889" rx="8.238" ry="7.489"/>
		<ellipse fill="#9A6733" cx="65.159" cy="77.142" rx="8.24" ry="7.488"/>
		<ellipse fill="#9A6733" cx="36.699" cy="79.387" rx="8.239" ry="7.489"/>
		<ellipse fill="#9A6733" cx="37.448" cy="7.488" rx="8.239" ry="7.49"/>
		<path fill="#9A6733" d="M13.482,45.687c0,4.55-3.019,8.236-6.742,8.236c-3.724,0-6.74-3.687-6.74-8.236
			c0-4.552,3.017-8.24,6.74-8.24C10.463,37.447,13.482,41.135,13.482,45.687z"/>
		<path fill="#9A6733" d="M75.644,44.188c0,4.552-3.017,8.238-6.741,8.238c-3.723,0-6.74-3.687-6.74-8.238
			c0-4.553,3.018-8.239,6.74-8.239C72.627,35.949,75.644,39.636,75.644,44.188z"/>
	</g>
</g>
</svg>
