<?xml version="1.0" encoding="utf-8"?>
<!-- Generator: Adobe Illustrator 15.0.2, SVG Export Plug-In . SVG Version: 6.00 Build 0)  -->
<!DOCTYPE svg PUBLIC "-//W3C//DTD SVG 1.1//EN" "http://www.w3.org/Graphics/SVG/1.1/DTD/svg11.dtd">
<svg version="1.1" id="Layer_1" xmlns="http://www.w3.org/2000/svg" xmlns:xlink="http://www.w3.org/1999/xlink" x="0px" y="0px"
	 width="93.29px" height="101.04px" viewBox="0 0 93.29 101.04" enable-background="new 0 0 93.29 101.04" xml:space="preserve">
<path fill="#9A6733" d="M93.29,46.409C70.543,38.786,82.729,21.557,73.293,7.563C68.07-0.026,50.794-2.524,44.451,2.941
	c-6.629-5.188-24.08-0.909-28.568,7.32C7.943,25.15,21.839,41.029,0,50.959c5.957,0.993,11.913,0,16.876-2.98
	c-2.98,2.98-5.957,6.95-8.933,9.927c6.946,0,12.906-2.977,16.876-7.939c-0.996,1.986-1.989,4.963-3.97,6.949
	c4.388-1.033,8.032-2.068,11.065-3.328c2.344,2.522,5.252,4.512,8.523,5.772c1.646,4.519,3.91,13.5-4.091,13.5
	c0,0-14.508-1.527-14.508,12.216c0,0,18.632,33.384,57.574,3.602c0,0,4.276-20.396-13.286-17.345c0,0-9.275,1.847-10.015-11.706
	c3.707-1.283,6.98-3.492,9.543-6.355c2.245,0.467,4.736,0.854,7.515,1.212c-1.947-1.586-3.191-4.037-4.285-5.878
	c0.03-0.058,0.06-0.116,0.089-0.174c4.424,4.228,10.46,6.4,17.136,5.708c-3.271-2.654-6.643-6.297-9.911-8.953
	C81.44,47.635,87.468,48.011,93.29,46.409z"/>
</svg>
