<?xml version="1.0" encoding="utf-8"?>
<!-- Generator: Adobe Illustrator 15.0.2, SVG Export Plug-In . SVG Version: 6.00 Build 0)  -->
<!DOCTYPE svg PUBLIC "-//W3C//DTD SVG 1.1//EN" "http://www.w3.org/Graphics/SVG/1.1/DTD/svg11.dtd">
<svg version="1.1" id="Layer_1" xmlns="http://www.w3.org/2000/svg" xmlns:xlink="http://www.w3.org/1999/xlink" x="0px" y="0px"
	 width="71.55px" height="98.674px" viewBox="0 0 71.55 98.674" enable-background="new 0 0 71.55 98.674" xml:space="preserve">
<g>
	<polygon fill="#9A6733" points="12.04,98.674 16.609,60.452 56.447,60.452 61.33,98.488 36.202,75.065 	"/>
	<polyline fill="#9A6733" points="32.795,8.518 36.202,0 41.738,8.09 	"/>
	<polyline fill="#9A6733" points="22.57,12.35 13.628,7.241 16.184,16.612 	"/>
	<path fill="#9A6733" d="M8.943,25.127c-1.278-0.425-8.518,1.706-8.518,1.706l9.795,5.535"/>
	<polyline fill="#9A6733" points="7.665,43.868 0,49.828 9.37,52.385 	"/>
	<polyline fill="#9A6733" points="64.736,50.255 71.55,48.979 67.719,44.293 	"/>
	<polyline fill="#9A6733" points="66.441,32.368 71.55,25.554 62.182,24.702 	"/>
	<polyline fill="#9A6733" points="50.714,9.716 58.531,8.389 57.531,14.452 	"/>
	<path fill="#9A6733" d="M36.492,6.434c-17.405,0-31.517,14.111-31.517,31.518c0,17.407,14.111,31.518,31.517,31.518
		S68.01,55.358,68.01,37.951C68.01,20.544,53.897,6.434,36.492,6.434z M36.202,57.699c-11.057,0-20.018-8.964-20.018-20.019
		s8.961-20.016,20.018-20.016c11.055,0,20.018,8.961,20.018,20.016S47.257,57.699,36.202,57.699z"/>
	<path fill="#9A6733" d="M52.52,38.241c0,8.939-7.244,16.187-16.184,16.187S20.151,47.18,20.151,38.241
		c0-8.936,7.245-16.181,16.185-16.181S52.52,29.305,52.52,38.241z"/>
</g>
</svg>
