<?xml version="1.0" encoding="utf-8"?>
<!-- Generator: Adobe Illustrator 15.0.2, SVG Export Plug-In . SVG Version: 6.00 Build 0)  -->
<!DOCTYPE svg PUBLIC "-//W3C//DTD SVG 1.1//EN" "http://www.w3.org/Graphics/SVG/1.1/DTD/svg11.dtd">
<svg version="1.1" id="Layer_1" xmlns="http://www.w3.org/2000/svg" xmlns:xlink="http://www.w3.org/1999/xlink" x="0px" y="0px"
	 width="152px" height="156px" viewBox="0 0 152 156" enable-background="new 0 0 152 156" xml:space="preserve">
<path fill="none" d="M152,139.888c0,6.689-5.423,12.112-12.112,12.112H12.112C5.423,152,0,146.577,0,139.888V12.112
	C0,5.423,5.423,0,12.112,0h127.775C146.577,0,152,5.423,152,12.112V139.888z"/>
<linearGradient id="SVGID_1_" gradientUnits="userSpaceOnUse" x1="4" y1="80.5" x2="149" y2="80.5">
	<stop  offset="0" style="stop-color:#F8F07D"/>
	<stop  offset="0.0343" style="stop-color:#F8E977"/>
	<stop  offset="0.1909" style="stop-color:#F9D461"/>
	<stop  offset="0.3574" style="stop-color:#F9C450"/>
	<stop  offset="0.5362" style="stop-color:#FBB945"/>
	<stop  offset="0.7361" style="stop-color:#FBB23E"/>
	<stop  offset="1" style="stop-color:#FBB03C"/>
</linearGradient>
<path fill="url(#SVGID_1_)" d="M149,143.888c0,6.689-5.423,12.112-12.112,12.112H16.112C9.423,156,4,150.577,4,143.888V17.112
	C4,10.423,9.423,5,16.112,5h120.775C143.577,5,149,10.423,149,17.112V143.888z"/>
<path fill="#9A6733" d="M139,134.475c0,5.812-4.712,10.525-10.525,10.525H23.525C17.712,145,13,140.287,13,134.475V24.525
	C13,18.713,17.712,14,23.525,14h104.949C134.288,14,139,18.713,139,24.525V134.475z"/>
<linearGradient id="SVGID_2_" gradientUnits="userSpaceOnUse" x1="22" y1="78.5" x2="129" y2="78.5">
	<stop  offset="0" style="stop-color:#F8F07D"/>
	<stop  offset="0.0343" style="stop-color:#F8E977"/>
	<stop  offset="0.1909" style="stop-color:#F9D461"/>
	<stop  offset="0.3574" style="stop-color:#F9C450"/>
	<stop  offset="0.5362" style="stop-color:#FBB945"/>
	<stop  offset="0.7361" style="stop-color:#FBB23E"/>
	<stop  offset="1" style="stop-color:#FBB03C"/>
</linearGradient>
<path fill="url(#SVGID_2_)" d="M129,125.062c0,4.937-4.002,8.938-8.938,8.938H30.938c-4.937,0-8.938-4.002-8.938-8.938V31.938
	C22,27.002,26.002,23,30.938,23h89.123c4.937,0,8.938,4.002,8.938,8.938V125.062z"/>
</svg>
